<mxfile host="app.diagrams.net" modified="2022-03-25T09:53:31.498Z" agent="5.0 (Windows NT 10.0; Win64; x64) AppleWebKit/537.36 (KHTML, like Gecko) Chrome/99.0.4844.82 Safari/537.36" etag="9AiT8X8O52xLjetms8HY" version="17.2.1" type="github">
  <diagram id="KcCSZYxiIMjHoylk2eUh" name="Page-1">
    <mxGraphModel dx="992" dy="585" grid="0" gridSize="10" guides="1" tooltips="1" connect="1" arrows="1" fold="1" page="1" pageScale="1" pageWidth="827" pageHeight="1169" math="0" shadow="0">
      <root>
        <mxCell id="0" />
        <mxCell id="1" parent="0" />
        <mxCell id="hsBplCIC4hythVRAS9m--1" value="Projet" style="swimlane;fontStyle=1;align=center;verticalAlign=middle;childLayout=stackLayout;horizontal=1;startSize=28;horizontalStack=0;resizeParent=1;resizeParentMax=0;resizeLast=0;collapsible=0;marginBottom=0;html=1;fontSize=12;labelPosition=center;verticalLabelPosition=middle;container=0;strokeColor=default;swimlaneLine=1;rounded=0;shadow=0;glass=0;sketch=0;perimeterSpacing=0;" vertex="1" parent="1">
          <mxGeometry x="45" y="164" width="150" height="210" as="geometry" />
        </mxCell>
        <mxCell id="hsBplCIC4hythVRAS9m--2" value="- id: Long" style="text;strokeColor=none;fillColor=none;align=left;verticalAlign=top;spacingLeft=4;spacingRight=4;overflow=hidden;rotatable=0;points=[[0,0.5],[1,0.5]];portConstraint=eastwest;container=0;" vertex="1" parent="hsBplCIC4hythVRAS9m--1">
          <mxGeometry y="28" width="150" height="26" as="geometry" />
        </mxCell>
        <mxCell id="hsBplCIC4hythVRAS9m--3" value="- code : String" style="text;strokeColor=none;fillColor=none;align=left;verticalAlign=top;spacingLeft=4;spacingRight=4;overflow=hidden;rotatable=0;points=[[0,0.5],[1,0.5]];portConstraint=eastwest;container=0;" vertex="1" parent="hsBplCIC4hythVRAS9m--1">
          <mxGeometry y="54" width="150" height="26" as="geometry" />
        </mxCell>
        <mxCell id="hsBplCIC4hythVRAS9m--4" value="- name: String" style="text;strokeColor=none;fillColor=none;align=left;verticalAlign=top;spacingLeft=4;spacingRight=4;overflow=hidden;rotatable=0;points=[[0,0.5],[1,0.5]];portConstraint=eastwest;container=0;" vertex="1" parent="hsBplCIC4hythVRAS9m--1">
          <mxGeometry y="80" width="150" height="26" as="geometry" />
        </mxCell>
        <mxCell id="hsBplCIC4hythVRAS9m--5" value="- plannedStartDate : Date" style="text;strokeColor=none;fillColor=none;align=left;verticalAlign=top;spacingLeft=4;spacingRight=4;overflow=hidden;rotatable=0;points=[[0,0.5],[1,0.5]];portConstraint=eastwest;container=0;" vertex="1" parent="hsBplCIC4hythVRAS9m--1">
          <mxGeometry y="106" width="150" height="26" as="geometry" />
        </mxCell>
        <mxCell id="hsBplCIC4hythVRAS9m--6" value="- plannedEndDate : Date" style="text;strokeColor=none;fillColor=none;align=left;verticalAlign=top;spacingLeft=4;spacingRight=4;overflow=hidden;rotatable=0;points=[[0,0.5],[1,0.5]];portConstraint=eastwest;container=0;" vertex="1" parent="hsBplCIC4hythVRAS9m--1">
          <mxGeometry y="132" width="150" height="26" as="geometry" />
        </mxCell>
        <mxCell id="hsBplCIC4hythVRAS9m--7" value="- startDate : Date" style="text;strokeColor=none;fillColor=none;align=left;verticalAlign=top;spacingLeft=4;spacingRight=4;overflow=hidden;rotatable=0;points=[[0,0.5],[1,0.5]];portConstraint=eastwest;container=0;" vertex="1" parent="hsBplCIC4hythVRAS9m--1">
          <mxGeometry y="158" width="150" height="26" as="geometry" />
        </mxCell>
        <mxCell id="hsBplCIC4hythVRAS9m--8" value="- endDate : Date" style="text;strokeColor=none;fillColor=none;align=left;verticalAlign=top;spacingLeft=4;spacingRight=4;overflow=hidden;rotatable=0;points=[[0,0.5],[1,0.5]];portConstraint=eastwest;container=0;" vertex="1" parent="hsBplCIC4hythVRAS9m--1">
          <mxGeometry y="184" width="150" height="26" as="geometry" />
        </mxCell>
        <mxCell id="hsBplCIC4hythVRAS9m--9" value="Employee" style="swimlane;fontStyle=1;align=center;verticalAlign=middle;childLayout=stackLayout;horizontal=1;startSize=29;horizontalStack=0;resizeParent=1;resizeParentMax=0;resizeLast=0;collapsible=0;marginBottom=0;html=1;fontSize=12;labelPosition=center;verticalLabelPosition=middle;container=0;" vertex="1" parent="1">
          <mxGeometry x="397" y="164" width="150" height="133" as="geometry" />
        </mxCell>
        <mxCell id="hsBplCIC4hythVRAS9m--10" value="- id: Long" style="text;strokeColor=none;fillColor=none;align=left;verticalAlign=top;spacingLeft=4;spacingRight=4;overflow=hidden;rotatable=0;points=[[0,0.5],[1,0.5]];portConstraint=eastwest;container=0;" vertex="1" parent="hsBplCIC4hythVRAS9m--9">
          <mxGeometry y="29" width="150" height="26" as="geometry" />
        </mxCell>
        <mxCell id="hsBplCIC4hythVRAS9m--11" value="- code: String" style="text;strokeColor=none;fillColor=none;align=left;verticalAlign=top;spacingLeft=4;spacingRight=4;overflow=hidden;rotatable=0;points=[[0,0.5],[1,0.5]];portConstraint=eastwest;container=0;" vertex="1" parent="hsBplCIC4hythVRAS9m--9">
          <mxGeometry y="55" width="150" height="26" as="geometry" />
        </mxCell>
        <mxCell id="hsBplCIC4hythVRAS9m--12" value="- nom : String" style="text;strokeColor=none;fillColor=none;align=left;verticalAlign=top;spacingLeft=4;spacingRight=4;overflow=hidden;rotatable=0;points=[[0,0.5],[1,0.5]];portConstraint=eastwest;container=0;" vertex="1" parent="hsBplCIC4hythVRAS9m--9">
          <mxGeometry y="81" width="150" height="26" as="geometry" />
        </mxCell>
        <mxCell id="hsBplCIC4hythVRAS9m--13" value="- bu : String" style="text;strokeColor=none;fillColor=none;align=left;verticalAlign=top;spacingLeft=4;spacingRight=4;overflow=hidden;rotatable=0;points=[[0,0.5],[1,0.5]];portConstraint=eastwest;container=0;" vertex="1" parent="hsBplCIC4hythVRAS9m--9">
          <mxGeometry y="107" width="150" height="26" as="geometry" />
        </mxCell>
        <mxCell id="hsBplCIC4hythVRAS9m--18" style="edgeStyle=orthogonalEdgeStyle;rounded=0;orthogonalLoop=1;jettySize=auto;html=1;endArrow=none;endFill=0;" edge="1" parent="1" source="hsBplCIC4hythVRAS9m--14">
          <mxGeometry relative="1" as="geometry">
            <mxPoint x="294.20001220703125" y="267.1999969482422" as="targetPoint" />
            <Array as="points">
              <mxPoint x="294" y="355" />
              <mxPoint x="294" y="355" />
            </Array>
          </mxGeometry>
        </mxCell>
        <mxCell id="hsBplCIC4hythVRAS9m--14" value="ProjectEmployee" style="swimlane;fontStyle=1;align=center;verticalAlign=middle;childLayout=stackLayout;horizontal=1;startSize=29;horizontalStack=0;resizeParent=1;resizeParentMax=0;resizeLast=0;collapsible=0;marginBottom=0;html=1;fontSize=12;labelPosition=center;verticalLabelPosition=middle;container=0;" vertex="1" parent="1">
          <mxGeometry x="220" y="348" width="150" height="81" as="geometry" />
        </mxCell>
        <mxCell id="hsBplCIC4hythVRAS9m--15" value="- id: Long" style="text;strokeColor=none;fillColor=none;align=left;verticalAlign=top;spacingLeft=4;spacingRight=4;overflow=hidden;rotatable=0;points=[[0,0.5],[1,0.5]];portConstraint=eastwest;container=0;" vertex="1" parent="hsBplCIC4hythVRAS9m--14">
          <mxGeometry y="29" width="150" height="26" as="geometry" />
        </mxCell>
        <mxCell id="hsBplCIC4hythVRAS9m--16" value="- grade :String" style="text;strokeColor=none;fillColor=none;align=left;verticalAlign=top;spacingLeft=4;spacingRight=4;overflow=hidden;rotatable=0;points=[[0,0.5],[1,0.5]];portConstraint=eastwest;container=0;" vertex="1" parent="hsBplCIC4hythVRAS9m--14">
          <mxGeometry y="55" width="150" height="26" as="geometry" />
        </mxCell>
        <mxCell id="hsBplCIC4hythVRAS9m--17" style="edgeStyle=orthogonalEdgeStyle;rounded=0;orthogonalLoop=1;jettySize=auto;html=1;endArrow=none;endFill=0;" edge="1" parent="1" source="hsBplCIC4hythVRAS9m--1" target="hsBplCIC4hythVRAS9m--9">
          <mxGeometry relative="1" as="geometry">
            <Array as="points">
              <mxPoint x="364" y="269" />
              <mxPoint x="364" y="269" />
            </Array>
          </mxGeometry>
        </mxCell>
        <mxCell id="hsBplCIC4hythVRAS9m--19" value="*" style="edgeLabel;html=1;align=center;verticalAlign=middle;resizable=0;points=[];" vertex="1" connectable="0" parent="hsBplCIC4hythVRAS9m--17">
          <mxGeometry x="0.8792" y="-1" relative="1" as="geometry">
            <mxPoint as="offset" />
          </mxGeometry>
        </mxCell>
        <mxCell id="hsBplCIC4hythVRAS9m--20" value="*" style="edgeLabel;html=1;align=center;verticalAlign=middle;resizable=0;points=[];" vertex="1" connectable="0" parent="hsBplCIC4hythVRAS9m--17">
          <mxGeometry x="-0.8413" y="1" relative="1" as="geometry">
            <mxPoint y="2" as="offset" />
          </mxGeometry>
        </mxCell>
        <mxCell id="hsBplCIC4hythVRAS9m--21" value="Role" style="swimlane;fontStyle=1;align=center;verticalAlign=middle;childLayout=stackLayout;horizontal=1;startSize=29;horizontalStack=0;resizeParent=1;resizeParentMax=0;resizeLast=0;collapsible=0;marginBottom=0;html=1;fontSize=12;labelPosition=center;verticalLabelPosition=middle;container=0;" vertex="1" parent="1">
          <mxGeometry x="650" y="164" width="150" height="81" as="geometry" />
        </mxCell>
        <mxCell id="hsBplCIC4hythVRAS9m--22" value="- id: Long" style="text;strokeColor=none;fillColor=none;align=left;verticalAlign=top;spacingLeft=4;spacingRight=4;overflow=hidden;rotatable=0;points=[[0,0.5],[1,0.5]];portConstraint=eastwest;container=0;" vertex="1" parent="hsBplCIC4hythVRAS9m--21">
          <mxGeometry y="29" width="150" height="26" as="geometry" />
        </mxCell>
        <mxCell id="hsBplCIC4hythVRAS9m--23" value="- role : String" style="text;strokeColor=none;fillColor=none;align=left;verticalAlign=top;spacingLeft=4;spacingRight=4;overflow=hidden;rotatable=0;points=[[0,0.5],[1,0.5]];portConstraint=eastwest;container=0;" vertex="1" parent="hsBplCIC4hythVRAS9m--21">
          <mxGeometry y="55" width="150" height="26" as="geometry" />
        </mxCell>
        <mxCell id="hsBplCIC4hythVRAS9m--24" style="edgeStyle=orthogonalEdgeStyle;rounded=0;orthogonalLoop=1;jettySize=auto;html=1;endArrow=none;endFill=0;" edge="1" parent="1" source="hsBplCIC4hythVRAS9m--11" target="hsBplCIC4hythVRAS9m--23">
          <mxGeometry relative="1" as="geometry">
            <Array as="points">
              <mxPoint x="602" y="221" />
              <mxPoint x="602" y="221" />
            </Array>
          </mxGeometry>
        </mxCell>
        <mxCell id="hsBplCIC4hythVRAS9m--25" value="1" style="edgeLabel;html=1;align=center;verticalAlign=middle;resizable=0;points=[];" vertex="1" connectable="0" parent="hsBplCIC4hythVRAS9m--24">
          <mxGeometry x="0.8089" y="-1" relative="1" as="geometry">
            <mxPoint x="-1" y="-4" as="offset" />
          </mxGeometry>
        </mxCell>
        <mxCell id="hsBplCIC4hythVRAS9m--26" value="*" style="edgeLabel;html=1;align=center;verticalAlign=middle;resizable=0;points=[];" vertex="1" connectable="0" parent="hsBplCIC4hythVRAS9m--24">
          <mxGeometry x="-0.7911" y="-1" relative="1" as="geometry">
            <mxPoint as="offset" />
          </mxGeometry>
        </mxCell>
        <mxCell id="hsBplCIC4hythVRAS9m--27" value="Departement" style="swimlane;fontStyle=1;align=center;verticalAlign=middle;childLayout=stackLayout;horizontal=1;startSize=29;horizontalStack=0;resizeParent=1;resizeParentMax=0;resizeLast=0;collapsible=0;marginBottom=0;html=1;fontSize=12;labelPosition=center;verticalLabelPosition=middle;container=0;" vertex="1" parent="1">
          <mxGeometry x="234" y="21" width="150" height="81" as="geometry" />
        </mxCell>
        <mxCell id="hsBplCIC4hythVRAS9m--28" value="- id: Long" style="text;strokeColor=none;fillColor=none;align=left;verticalAlign=top;spacingLeft=4;spacingRight=4;overflow=hidden;rotatable=0;points=[[0,0.5],[1,0.5]];portConstraint=eastwest;container=0;" vertex="1" parent="hsBplCIC4hythVRAS9m--27">
          <mxGeometry y="29" width="150" height="26" as="geometry" />
        </mxCell>
        <mxCell id="hsBplCIC4hythVRAS9m--29" value="- name : String" style="text;strokeColor=none;fillColor=none;align=left;verticalAlign=top;spacingLeft=4;spacingRight=4;overflow=hidden;rotatable=0;points=[[0,0.5],[1,0.5]];portConstraint=eastwest;container=0;" vertex="1" parent="hsBplCIC4hythVRAS9m--27">
          <mxGeometry y="55" width="150" height="26" as="geometry" />
        </mxCell>
        <mxCell id="hsBplCIC4hythVRAS9m--30" style="edgeStyle=orthogonalEdgeStyle;rounded=0;orthogonalLoop=1;jettySize=auto;html=1;endArrow=none;endFill=0;" edge="1" parent="1" source="hsBplCIC4hythVRAS9m--27" target="hsBplCIC4hythVRAS9m--9">
          <mxGeometry relative="1" as="geometry">
            <Array as="points">
              <mxPoint x="309" y="208" />
            </Array>
          </mxGeometry>
        </mxCell>
        <mxCell id="hsBplCIC4hythVRAS9m--31" value="*" style="edgeLabel;html=1;align=center;verticalAlign=middle;resizable=0;points=[];" vertex="1" connectable="0" parent="hsBplCIC4hythVRAS9m--30">
          <mxGeometry x="0.8231" y="1" relative="1" as="geometry">
            <mxPoint x="5" y="2" as="offset" />
          </mxGeometry>
        </mxCell>
        <mxCell id="hsBplCIC4hythVRAS9m--32" value="1" style="edgeLabel;html=1;align=center;verticalAlign=middle;resizable=0;points=[];" vertex="1" connectable="0" parent="hsBplCIC4hythVRAS9m--30">
          <mxGeometry x="-0.9062" y="1" relative="1" as="geometry">
            <mxPoint x="-2" as="offset" />
          </mxGeometry>
        </mxCell>
        <mxCell id="hsBplCIC4hythVRAS9m--33" style="edgeStyle=orthogonalEdgeStyle;rounded=0;orthogonalLoop=1;jettySize=auto;html=1;endArrow=none;endFill=0;" edge="1" parent="1" source="hsBplCIC4hythVRAS9m--27" target="hsBplCIC4hythVRAS9m--1">
          <mxGeometry relative="1" as="geometry" />
        </mxCell>
        <mxCell id="hsBplCIC4hythVRAS9m--34" value="*" style="edgeLabel;html=1;align=center;verticalAlign=middle;resizable=0;points=[];" vertex="1" connectable="0" parent="hsBplCIC4hythVRAS9m--33">
          <mxGeometry x="0.8537" y="-3" relative="1" as="geometry">
            <mxPoint x="3" y="5" as="offset" />
          </mxGeometry>
        </mxCell>
        <mxCell id="hsBplCIC4hythVRAS9m--35" value="1" style="edgeLabel;html=1;align=center;verticalAlign=middle;resizable=0;points=[];" vertex="1" connectable="0" parent="hsBplCIC4hythVRAS9m--33">
          <mxGeometry x="-0.951" relative="1" as="geometry">
            <mxPoint x="-5" as="offset" />
          </mxGeometry>
        </mxCell>
        <mxCell id="hsBplCIC4hythVRAS9m--64" style="edgeStyle=orthogonalEdgeStyle;rounded=0;orthogonalLoop=1;jettySize=auto;html=1;endArrow=none;endFill=0;" edge="1" parent="1" source="hsBplCIC4hythVRAS9m--1" target="hsBplCIC4hythVRAS9m--119">
          <mxGeometry relative="1" as="geometry">
            <mxPoint x="423" y="474.0666666666666" as="targetPoint" />
            <Array as="points">
              <mxPoint x="120" y="486" />
              <mxPoint x="120" y="486" />
            </Array>
          </mxGeometry>
        </mxCell>
        <mxCell id="hsBplCIC4hythVRAS9m--65" value="1" style="edgeLabel;html=1;align=center;verticalAlign=middle;resizable=0;points=[];" vertex="1" connectable="0" parent="hsBplCIC4hythVRAS9m--64">
          <mxGeometry x="0.9228" y="2" relative="1" as="geometry">
            <mxPoint x="-3" y="-4" as="offset" />
          </mxGeometry>
        </mxCell>
        <mxCell id="hsBplCIC4hythVRAS9m--66" value="1" style="edgeLabel;html=1;align=center;verticalAlign=middle;resizable=0;points=[];" vertex="1" connectable="0" parent="hsBplCIC4hythVRAS9m--64">
          <mxGeometry x="-0.9368" y="-3" relative="1" as="geometry">
            <mxPoint x="2" y="4" as="offset" />
          </mxGeometry>
        </mxCell>
        <mxCell id="hsBplCIC4hythVRAS9m--119" value="Calendrier" style="swimlane;fontStyle=1;align=center;verticalAlign=middle;childLayout=stackLayout;horizontal=1;startSize=29;horizontalStack=0;resizeParent=1;resizeParentMax=0;resizeLast=0;collapsible=0;marginBottom=0;html=1;shadow=0;fontSize=12;labelPosition=center;verticalLabelPosition=middle;container=0;" vertex="1" parent="1">
          <mxGeometry x="48" y="505" width="150" height="55" as="geometry" />
        </mxCell>
        <mxCell id="hsBplCIC4hythVRAS9m--120" value="- id: Long" style="text;strokeColor=none;fillColor=none;align=left;verticalAlign=top;spacingLeft=4;spacingRight=4;overflow=hidden;rotatable=0;points=[[0,0.5],[1,0.5]];portConstraint=eastwest;container=0;" vertex="1" parent="hsBplCIC4hythVRAS9m--119">
          <mxGeometry y="29" width="150" height="26" as="geometry" />
        </mxCell>
        <mxCell id="hsBplCIC4hythVRAS9m--125" style="edgeStyle=orthogonalEdgeStyle;rounded=0;orthogonalLoop=1;jettySize=auto;html=1;endArrow=none;endFill=0;" edge="1" parent="1" source="hsBplCIC4hythVRAS9m--121" target="hsBplCIC4hythVRAS9m--119">
          <mxGeometry relative="1" as="geometry">
            <Array as="points">
              <mxPoint x="260" y="532" />
              <mxPoint x="260" y="532" />
            </Array>
          </mxGeometry>
        </mxCell>
        <mxCell id="hsBplCIC4hythVRAS9m--126" value="*" style="edgeLabel;html=1;align=center;verticalAlign=middle;resizable=0;points=[];" vertex="1" connectable="0" parent="hsBplCIC4hythVRAS9m--125">
          <mxGeometry x="-0.677" relative="1" as="geometry">
            <mxPoint x="2" as="offset" />
          </mxGeometry>
        </mxCell>
        <mxCell id="hsBplCIC4hythVRAS9m--127" value="1" style="edgeLabel;html=1;align=center;verticalAlign=middle;resizable=0;points=[];" vertex="1" connectable="0" parent="hsBplCIC4hythVRAS9m--125">
          <mxGeometry x="0.6592" relative="1" as="geometry">
            <mxPoint x="-4" as="offset" />
          </mxGeometry>
        </mxCell>
        <mxCell id="hsBplCIC4hythVRAS9m--121" value="Iteration" style="swimlane;fontStyle=1;align=center;verticalAlign=middle;childLayout=stackLayout;horizontal=1;startSize=29;horizontalStack=0;resizeParent=1;resizeParentMax=0;resizeLast=0;collapsible=0;marginBottom=0;html=1;fontSize=12;labelPosition=center;verticalLabelPosition=middle;container=0;" vertex="1" parent="1">
          <mxGeometry x="271" y="505" width="150" height="107" as="geometry" />
        </mxCell>
        <mxCell id="hsBplCIC4hythVRAS9m--122" value="- id: Long" style="text;strokeColor=none;fillColor=none;align=left;verticalAlign=top;spacingLeft=4;spacingRight=4;overflow=hidden;rotatable=0;points=[[0,0.5],[1,0.5]];portConstraint=eastwest;container=0;" vertex="1" parent="hsBplCIC4hythVRAS9m--121">
          <mxGeometry y="29" width="150" height="26" as="geometry" />
        </mxCell>
        <mxCell id="hsBplCIC4hythVRAS9m--123" value="- nom : String" style="text;strokeColor=none;fillColor=none;align=left;verticalAlign=top;spacingLeft=4;spacingRight=4;overflow=hidden;rotatable=0;points=[[0,0.5],[1,0.5]];portConstraint=eastwest;container=0;" vertex="1" parent="hsBplCIC4hythVRAS9m--121">
          <mxGeometry y="55" width="150" height="26" as="geometry" />
        </mxCell>
        <mxCell id="hsBplCIC4hythVRAS9m--124" value="- deadLine : Date" style="text;strokeColor=none;fillColor=none;align=left;verticalAlign=top;spacingLeft=4;spacingRight=4;overflow=hidden;rotatable=0;points=[[0,0.5],[1,0.5]];portConstraint=eastwest;container=0;" vertex="1" parent="hsBplCIC4hythVRAS9m--121">
          <mxGeometry y="81" width="150" height="26" as="geometry" />
        </mxCell>
        <mxCell id="hsBplCIC4hythVRAS9m--161" style="edgeStyle=orthogonalEdgeStyle;rounded=0;orthogonalLoop=1;jettySize=auto;html=1;endArrow=none;endFill=0;" edge="1" parent="1" source="hsBplCIC4hythVRAS9m--154" target="hsBplCIC4hythVRAS9m--9">
          <mxGeometry relative="1" as="geometry">
            <Array as="points">
              <mxPoint x="591" y="262" />
            </Array>
          </mxGeometry>
        </mxCell>
        <mxCell id="hsBplCIC4hythVRAS9m--177" value="*" style="edgeLabel;html=1;align=center;verticalAlign=middle;resizable=0;points=[];" vertex="1" connectable="0" parent="hsBplCIC4hythVRAS9m--161">
          <mxGeometry x="-0.8479" y="2" relative="1" as="geometry">
            <mxPoint x="1" as="offset" />
          </mxGeometry>
        </mxCell>
        <mxCell id="hsBplCIC4hythVRAS9m--178" value="1" style="edgeLabel;html=1;align=center;verticalAlign=middle;resizable=0;points=[];" vertex="1" connectable="0" parent="hsBplCIC4hythVRAS9m--161">
          <mxGeometry x="0.9004" y="2" relative="1" as="geometry">
            <mxPoint x="2" y="-1" as="offset" />
          </mxGeometry>
        </mxCell>
        <mxCell id="hsBplCIC4hythVRAS9m--174" style="edgeStyle=orthogonalEdgeStyle;rounded=0;orthogonalLoop=1;jettySize=auto;html=1;startArrow=none;startFill=0;endArrow=none;endFill=0;fillColor=#f8cecc;strokeColor=#b85450;" edge="1" parent="1" source="hsBplCIC4hythVRAS9m--154" target="hsBplCIC4hythVRAS9m--1">
          <mxGeometry relative="1" as="geometry">
            <Array as="points">
              <mxPoint x="544" y="335" />
            </Array>
          </mxGeometry>
        </mxCell>
        <mxCell id="hsBplCIC4hythVRAS9m--175" value="*" style="edgeLabel;html=1;align=center;verticalAlign=middle;resizable=0;points=[];" vertex="1" connectable="0" parent="hsBplCIC4hythVRAS9m--174">
          <mxGeometry x="-0.9322" relative="1" as="geometry">
            <mxPoint as="offset" />
          </mxGeometry>
        </mxCell>
        <mxCell id="hsBplCIC4hythVRAS9m--176" value="1" style="edgeLabel;html=1;align=center;verticalAlign=middle;resizable=0;points=[];" vertex="1" connectable="0" parent="hsBplCIC4hythVRAS9m--174">
          <mxGeometry x="0.9398" y="-1" relative="1" as="geometry">
            <mxPoint as="offset" />
          </mxGeometry>
        </mxCell>
        <mxCell id="hsBplCIC4hythVRAS9m--154" value="&lt;span style=&quot;font-size: 12px&quot;&gt;Retrospective&lt;/span&gt;" style="swimlane;fontStyle=1;align=center;verticalAlign=middle;childLayout=stackLayout;horizontal=1;startSize=29;horizontalStack=0;resizeParent=1;resizeParentMax=0;resizeLast=0;collapsible=0;marginBottom=0;html=1;shadow=0;fontSize=12;labelPosition=center;verticalLabelPosition=middle;container=0;" vertex="1" parent="1">
          <mxGeometry x="497" y="364" width="150" height="159" as="geometry" />
        </mxCell>
        <mxCell id="hsBplCIC4hythVRAS9m--155" value="- id: Long" style="text;strokeColor=none;fillColor=none;align=left;verticalAlign=top;spacingLeft=4;spacingRight=4;overflow=hidden;rotatable=0;points=[[0,0.5],[1,0.5]];portConstraint=eastwest;container=0;" vertex="1" parent="hsBplCIC4hythVRAS9m--154">
          <mxGeometry y="29" width="150" height="26" as="geometry" />
        </mxCell>
        <mxCell id="hsBplCIC4hythVRAS9m--156" value="- date : Date" style="text;strokeColor=none;fillColor=none;align=left;verticalAlign=top;spacingLeft=4;spacingRight=4;overflow=hidden;rotatable=0;points=[[0,0.5],[1,0.5]];portConstraint=eastwest;container=0;" vertex="1" parent="hsBplCIC4hythVRAS9m--154">
          <mxGeometry y="55" width="150" height="26" as="geometry" />
        </mxCell>
        <mxCell id="hsBplCIC4hythVRAS9m--157" value="- date : Date" style="text;strokeColor=none;fillColor=none;align=left;verticalAlign=top;spacingLeft=4;spacingRight=4;overflow=hidden;rotatable=0;points=[[0,0.5],[1,0.5]];portConstraint=eastwest;container=0;" vertex="1" parent="hsBplCIC4hythVRAS9m--154">
          <mxGeometry y="81" width="150" height="26" as="geometry" />
        </mxCell>
        <mxCell id="hsBplCIC4hythVRAS9m--158" value="- problem : String" style="text;strokeColor=none;fillColor=none;align=left;verticalAlign=top;spacingLeft=4;spacingRight=4;overflow=hidden;rotatable=0;points=[[0,0.5],[1,0.5]];portConstraint=eastwest;container=0;" vertex="1" parent="hsBplCIC4hythVRAS9m--154">
          <mxGeometry y="107" width="150" height="26" as="geometry" />
        </mxCell>
        <mxCell id="hsBplCIC4hythVRAS9m--159" value="- decision : String" style="text;strokeColor=none;fillColor=none;align=left;verticalAlign=top;spacingLeft=4;spacingRight=4;overflow=hidden;rotatable=0;points=[[0,0.5],[1,0.5]];portConstraint=eastwest;container=0;" vertex="1" parent="hsBplCIC4hythVRAS9m--154">
          <mxGeometry y="133" width="150" height="26" as="geometry" />
        </mxCell>
        <mxCell id="hsBplCIC4hythVRAS9m--160" style="edgeStyle=orthogonalEdgeStyle;rounded=0;orthogonalLoop=1;jettySize=auto;html=1;endArrow=none;endFill=0;" edge="1" parent="1" source="hsBplCIC4hythVRAS9m--123" target="hsBplCIC4hythVRAS9m--154">
          <mxGeometry relative="1" as="geometry">
            <Array as="points">
              <mxPoint x="521" y="573" />
            </Array>
          </mxGeometry>
        </mxCell>
        <mxCell id="hsBplCIC4hythVRAS9m--162" value="0..*" style="edgeLabel;html=1;align=center;verticalAlign=middle;resizable=0;points=[];" vertex="1" connectable="0" parent="hsBplCIC4hythVRAS9m--160">
          <mxGeometry x="0.9215" relative="1" as="geometry">
            <mxPoint as="offset" />
          </mxGeometry>
        </mxCell>
        <mxCell id="hsBplCIC4hythVRAS9m--163" value="1" style="edgeLabel;html=1;align=center;verticalAlign=middle;resizable=0;points=[];" vertex="1" connectable="0" parent="hsBplCIC4hythVRAS9m--160">
          <mxGeometry x="-0.9329" y="1" relative="1" as="geometry">
            <mxPoint as="offset" />
          </mxGeometry>
        </mxCell>
        <mxCell id="hsBplCIC4hythVRAS9m--172" style="edgeStyle=orthogonalEdgeStyle;rounded=0;orthogonalLoop=1;jettySize=auto;html=1;endArrow=none;endFill=0;dashed=1;startArrow=classic;startFill=1;" edge="1" parent="1" source="hsBplCIC4hythVRAS9m--164" target="hsBplCIC4hythVRAS9m--154">
          <mxGeometry relative="1" as="geometry">
            <Array as="points">
              <mxPoint x="688" y="591" />
              <mxPoint x="613" y="591" />
            </Array>
          </mxGeometry>
        </mxCell>
        <mxCell id="hsBplCIC4hythVRAS9m--164" value="&amp;lt;&amp;lt;enum&amp;gt;&amp;gt;&lt;br&gt;Sujet" style="swimlane;fontStyle=1;align=center;verticalAlign=middle;childLayout=stackLayout;horizontal=1;startSize=29;horizontalStack=0;resizeParent=1;resizeParentMax=0;resizeLast=0;collapsible=0;marginBottom=0;html=1;fontSize=12;labelPosition=center;verticalLabelPosition=middle;container=0;" vertex="1" parent="1">
          <mxGeometry x="613" y="659" width="150" height="107" as="geometry" />
        </mxCell>
        <mxCell id="hsBplCIC4hythVRAS9m--165" value="Scope&#xa;" style="text;strokeColor=none;fillColor=none;align=left;verticalAlign=top;spacingLeft=4;spacingRight=4;overflow=hidden;rotatable=0;points=[[0,0.5],[1,0.5]];portConstraint=eastwest;container=0;" vertex="1" parent="hsBplCIC4hythVRAS9m--164">
          <mxGeometry y="29" width="150" height="26" as="geometry" />
        </mxCell>
        <mxCell id="hsBplCIC4hythVRAS9m--166" value="Technical skills" style="text;strokeColor=none;fillColor=none;align=left;verticalAlign=top;spacingLeft=4;spacingRight=4;overflow=hidden;rotatable=0;points=[[0,0.5],[1,0.5]];portConstraint=eastwest;container=0;" vertex="1" parent="hsBplCIC4hythVRAS9m--164">
          <mxGeometry y="55" width="150" height="26" as="geometry" />
        </mxCell>
        <mxCell id="hsBplCIC4hythVRAS9m--167" value="Resourcing" style="text;strokeColor=none;fillColor=none;align=left;verticalAlign=top;spacingLeft=4;spacingRight=4;overflow=hidden;rotatable=0;points=[[0,0.5],[1,0.5]];portConstraint=eastwest;container=0;" vertex="1" parent="hsBplCIC4hythVRAS9m--164">
          <mxGeometry y="81" width="150" height="26" as="geometry" />
        </mxCell>
        <mxCell id="hsBplCIC4hythVRAS9m--173" style="edgeStyle=orthogonalEdgeStyle;rounded=0;orthogonalLoop=1;jettySize=auto;html=1;endArrow=none;endFill=0;dashed=1;startArrow=classic;startFill=1;" edge="1" parent="1" source="hsBplCIC4hythVRAS9m--168" target="hsBplCIC4hythVRAS9m--154">
          <mxGeometry relative="1" as="geometry" />
        </mxCell>
        <mxCell id="hsBplCIC4hythVRAS9m--168" value="&amp;lt;&amp;lt;enum&amp;gt;&amp;gt;&lt;br&gt;RetrospectivePriorite" style="swimlane;fontStyle=1;align=center;verticalAlign=middle;childLayout=stackLayout;horizontal=1;startSize=29;horizontalStack=0;resizeParent=1;resizeParentMax=0;resizeLast=0;collapsible=0;marginBottom=0;html=1;fontSize=12;labelPosition=center;verticalLabelPosition=middle;container=0;" vertex="1" parent="1">
          <mxGeometry x="445" y="659" width="150" height="107" as="geometry" />
        </mxCell>
        <mxCell id="hsBplCIC4hythVRAS9m--169" value="Medium" style="text;strokeColor=none;fillColor=none;align=left;verticalAlign=top;spacingLeft=4;spacingRight=4;overflow=hidden;rotatable=0;points=[[0,0.5],[1,0.5]];portConstraint=eastwest;container=0;" vertex="1" parent="hsBplCIC4hythVRAS9m--168">
          <mxGeometry y="29" width="150" height="26" as="geometry" />
        </mxCell>
        <mxCell id="hsBplCIC4hythVRAS9m--170" value="High" style="text;strokeColor=none;fillColor=none;align=left;verticalAlign=top;spacingLeft=4;spacingRight=4;overflow=hidden;rotatable=0;points=[[0,0.5],[1,0.5]];portConstraint=eastwest;container=0;" vertex="1" parent="hsBplCIC4hythVRAS9m--168">
          <mxGeometry y="55" width="150" height="26" as="geometry" />
        </mxCell>
        <mxCell id="hsBplCIC4hythVRAS9m--171" value="Low" style="text;strokeColor=none;fillColor=none;align=left;verticalAlign=top;spacingLeft=4;spacingRight=4;overflow=hidden;rotatable=0;points=[[0,0.5],[1,0.5]];portConstraint=eastwest;container=0;" vertex="1" parent="hsBplCIC4hythVRAS9m--168">
          <mxGeometry y="81" width="150" height="26" as="geometry" />
        </mxCell>
      </root>
    </mxGraphModel>
  </diagram>
</mxfile>
